<svg xmlns="http://www.w3.org/2000/svg" width="37.5" viewBox="0 0 37.5 37.5" height="37.5" version="1.0"><defs><clipPath id="a"><path d="M 1.164062 1.164062 L 36.414062 1.164062 L 36.414062 36.414062 L 1.164062 36.414062 Z M 1.164062 1.164062"/></clipPath></defs><g clip-path="url(#a)"><path fill="#11224D" d="M 18.789062 35.136719 C 9.773438 35.136719 2.4375 27.804688 2.4375 18.789062 C 2.4375 9.773438 9.773438 2.4375 18.789062 2.4375 C 27.804688 2.4375 35.136719 9.773438 35.136719 18.789062 C 35.136719 27.804688 27.804688 35.136719 18.789062 35.136719 Z M 18.789062 1.164062 C 9.070312 1.164062 1.164062 9.070312 1.164062 18.789062 C 1.164062 28.503906 9.070312 36.414062 18.789062 36.414062 C 28.503906 36.414062 36.414062 28.503906 36.414062 18.789062 C 36.414062 9.070312 28.503906 1.164062 18.789062 1.164062"/></g><path fill="#11224D" d="M 15.859375 10.832031 C 15.609375 10.585938 15.203125 10.589844 14.957031 10.839844 C 14.710938 11.089844 14.714844 11.492188 14.964844 11.738281 L 22.125 18.789062 L 14.964844 25.835938 C 14.714844 26.082031 14.710938 26.484375 14.957031 26.734375 C 15.082031 26.863281 15.246094 26.925781 15.410156 26.925781 C 15.574219 26.925781 15.734375 26.867188 15.859375 26.742188 L 23.480469 19.242188 C 23.601562 19.121094 23.671875 18.957031 23.671875 18.789062 C 23.671875 18.617188 23.601562 18.453125 23.480469 18.332031 L 15.859375 10.832031"/></svg>