<svg xmlns="http://www.w3.org/2000/svg" width="37.5" viewBox="0 0 37.5 37.5" height="37.5" version="1.0"><defs><clipPath id="a"><path d="M 1.164062 1.164062 L 36.332031 1.164062 L 36.332031 36.414062 L 1.164062 36.414062 Z M 1.164062 1.164062"/></clipPath></defs><g clip-path="url(#a)"><path fill="#11224D" d="M 18.707031 35.136719 C 27.722656 35.136719 35.054688 27.804688 35.054688 18.789062 C 35.054688 9.773438 27.722656 2.4375 18.707031 2.4375 C 9.691406 2.4375 2.355469 9.773438 2.355469 18.789062 C 2.355469 27.804688 9.691406 35.136719 18.707031 35.136719 Z M 18.707031 1.164062 C 28.421875 1.164062 36.332031 9.070312 36.332031 18.789062 C 36.332031 28.503906 28.421875 36.414062 18.707031 36.414062 C 8.988281 36.414062 1.082031 28.503906 1.082031 18.789062 C 1.082031 9.070312 8.988281 1.164062 18.707031 1.164062"/></g><path fill="#11224D" d="M 21.632812 10.832031 C 21.886719 10.585938 22.289062 10.589844 22.535156 10.839844 C 22.78125 11.089844 22.777344 11.492188 22.527344 11.738281 L 15.367188 18.789062 L 22.527344 25.835938 C 22.777344 26.082031 22.78125 26.484375 22.535156 26.734375 C 22.410156 26.863281 22.246094 26.925781 22.082031 26.925781 C 21.917969 26.925781 21.757812 26.867188 21.632812 26.742188 L 14.011719 19.242188 C 13.890625 19.121094 13.820312 18.957031 13.820312 18.789062 C 13.820312 18.617188 13.890625 18.453125 14.011719 18.332031 L 21.632812 10.832031"/></svg>